<svg xmlns="http://www.w3.org/2000/svg" viewBox="0 0 32 40" x="0px" y="0px"><g data-name="Layer 5"><path d="M27.917,10.0664A1.4916,1.4916,0,0,0,26.7432,9.5H7.3091L5.4473,5.7764A.5.5,0,0,0,5,5.5H3a.5.5,0,0,0,0,1H4.6914l1.8347,3.67L9.334,22.3374A1.4931,1.4931,0,0,0,10.7959,23.5H24.2041a1.4931,1.4931,0,0,0,1.4619-1.1626l2.5391-11A1.4921,1.4921,0,0,0,27.917,10.0664ZM18,20.4873H12a.5.5,0,0,1,0-1h6a.5.5,0,0,1,0,1Zm6.1143-3.0957h-13a.5.5,0,0,1,0-1h13a.5.5,0,0,1,0,1Zm1.0732-2.8086h-15a.5.5,0,0,1,0-1h15a.5.5,0,0,1,0,1Z"/><circle cx="11" cy="27" r="2.5"/><circle cx="24" cy="27" r="2.5"/></g><text x="0" y="47" fill="#000000" font-size="5px" font-weight="bold" font-family="'Helvetica Neue', Helvetica, Arial-Unicode, Arial, Sans-serif">Created by fahron</text><text x="0" y="52" fill="#000000" font-size="5px" font-weight="bold" font-family="'Helvetica Neue', Helvetica, Arial-Unicode, Arial, Sans-serif">from the Noun Project</text></svg>