<svg xmlns="http://www.w3.org/2000/svg" width="337.803" height="202.646" viewBox="0 0 337.803 202.646">
  <g id="Group_1" data-name="Group 1" transform="translate(-1358.865 -626.729)">
    <path id="Path_5" data-name="Path 5" d="M192.09,269.595a48.8,48.8,0,1,0-48.8-48.8A48.8,48.8,0,0,0,192.09,269.595Zm0-78.623a29.92,29.92,0,1,1-29.92,29.92A29.917,29.917,0,0,1,192.09,190.972Zm0,0" transform="translate(1241.716 454.729)" fill="#e60023"/>
    <path id="Path_6" data-name="Path 6" d="M183.61,325.124A73.237,73.237,0,0,0,130.565,347.3c-14.158,14.441-21.9,34.073-21.9,55.4a9.464,9.464,0,0,0,9.439,9.439h131a9.464,9.464,0,0,0,9.439-9.439c0-21.331-7.74-40.963-21.9-55.4a73.231,73.231,0,0,0-53.042-22.181Zm-55.4,68.146a57.722,57.722,0,0,1,15.857-32.752,55.6,55.6,0,0,1,79.092,0,58.028,58.028,0,0,1,15.857,32.752Zm0,0" transform="translate(1250.197 417.227)" fill="#e60023"/>
    <path id="plus" d="M151.922,71.963H87.956V8A8,8,0,0,0,71.964,8V71.963H8A8,8,0,0,0,8,87.956H71.964v63.966a8,8,0,1,0,15.992,0V87.956h63.966a8,8,0,1,0,0-15.992Zm0,0" transform="translate(1534.749 639.749)" fill="#e60023" stroke="#e60023" stroke-width="4"/>
  </g>
</svg>
