<svg xmlns="http://www.w3.org/2000/svg" width="88" height="88" viewBox="0 0 88 88">
  <g id="Group_2" data-name="Group 2" transform="translate(-848.001 -46)">
    <path id="Path_16" data-name="Path 16" d="M892,130.562a44,44,0,0,1-43.964-42.281c-.022.571-.036,1.143-.036,1.719a44,44,0,0,0,88,0c0-.576-.014-1.148-.037-1.719A44,44,0,0,1,892,130.562Z" fill="#f77d48"/>
    <path id="Path_15" data-name="Path 15" d="M936,90a44,44,0,1,1-44-44A44,44,0,0,1,936,90Z" fill="#ffc2b0"/>
    <path id="Path_17" data-name="Path 17" d="M903.588,63.632c-.5-1.934-2.634-4.675-10.72-4.675-12.493,0-14.272,1.85-17.6-1.345-2.8-2.7-4.453,10.278-.712,14.4a27.833,27.833,0,0,0-.316,11.681h35.15S912.343,70.038,903.588,63.632Z" fill="#ffb27d"/>
    <path id="Path_18" data-name="Path 18" d="M875.27,60.732c3.326,3.2,5.1,1.345,17.6,1.345,8.087,0,10.221,2.741,10.721,4.675,4.656,3.407,6,8.863,6.24,13.226.235-4.513-.374-12.053-6.24-16.345-.5-1.934-2.634-4.675-10.721-4.675-12.493,0-14.271,1.85-17.6-1.346-1.843-1.772-3.186,3.225-2.829,8.03C872.7,62.09,873.832,59.35,875.27,60.732Z" fill="#fa922b"/>
    <path id="Path_19" data-name="Path 19" d="M877.792,84.3a5.574,5.574,0,0,0-4.546-2.776c-3.03,0-5.177,13.324,4.546,11.1Z" fill="#ffe4d1"/>
    <path id="Path_20" data-name="Path 20" d="M905.843,84.3a5.576,5.576,0,0,1,4.546-2.776c3.032,0,5.178,13.324-4.546,11.1Z" fill="#ffe4d1"/>
    <path id="Path_21" data-name="Path 21" d="M891.818,66.45c-23.219,0-18.78,38.081,0,38.081S915.037,66.45,891.818,66.45Z" fill="#ffefe4"/>
    <path id="Path_22" data-name="Path 22" d="M891.818,64.378s-15.794-2.228-15.794,18.036c0,0,1.989-8.376,6.551-10.66,2.125-1.064,2.9,1.631,9.243,1.631s7.118-2.7,9.242-1.631c4.563,2.284,6.551,10.66,6.551,10.66C907.611,62.15,891.818,64.378,891.818,64.378Z" fill="#ffb27d"/>
    <path id="Path_23" data-name="Path 23" d="M923.767,120.442a10.4,10.4,0,0,0-6.383-5.956L903.116,109.8a3.3,3.3,0,0,1-2.273-3.11l-.051-5.762a13.147,13.147,0,0,1-17.711.156l.049,5.56a3.307,3.307,0,0,1-2.275,3.17l-14.263,4.677a10.4,10.4,0,0,0-6.379,5.932,44,44,0,0,0,63.554.021Z" fill="#fa922b"/>
    <path id="Path_24" data-name="Path 24" d="M893.538,133.97c.253-.009.506-.017.758-.03.149-.007.3-.019.446-.028.231-.014.462-.027.692-.045.156-.012.31-.028.466-.041.222-.02.443-.038.664-.061.159-.016.318-.036.476-.054.216-.024.43-.048.645-.075.161-.021.321-.045.481-.068.211-.03.422-.059.632-.091.16-.025.319-.053.479-.079.209-.035.418-.069.625-.107.159-.029.317-.06.476-.091.207-.04.413-.079.618-.122.158-.032.315-.068.472-.1.2-.045.41-.09.614-.137l.464-.113c.2-.051.408-.1.612-.154.153-.04.3-.083.456-.123.2-.056.407-.112.61-.17.149-.043.3-.089.446-.133.2-.061.407-.122.609-.186l.436-.142q.3-.1.608-.2c.143-.049.284-.1.425-.15.2-.072.406-.146.608-.22l.415-.158c.2-.078.405-.156.606-.237.135-.054.27-.11.4-.165q.3-.126.606-.256.2-.084.39-.171.306-.133.607-.273c.127-.058.253-.117.378-.176q.306-.144.609-.294l.362-.179c.2-.1.408-.207.61-.313.117-.061.233-.122.348-.184.205-.109.408-.22.611-.332l.335-.187c.2-.116.408-.233.61-.353.107-.062.213-.125.32-.189.206-.122.41-.248.614-.374l.3-.189c.207-.131.412-.264.617-.4l.285-.187c.207-.139.413-.28.618-.421.089-.063.179-.124.268-.186.21-.147.417-.3.623-.447l.247-.18c.212-.157.421-.316.63-.476l.224-.172q.321-.25.637-.506l.2-.163c.218-.178.433-.358.648-.541l.173-.146c.223-.192.443-.386.662-.582.047-.043.1-.084.143-.127.229-.207.454-.415.679-.626l.109-.1q.357-.337.707-.685c.02-.021.042-.04.062-.06.252-.252.5-.5.748-.762l0,0a10.421,10.421,0,0,0-1.232-2.2,44,44,0,0,1-61.085-.018,10.441,10.441,0,0,0-1.237,2.2l.008.008q.366.382.742.757l.086.084q.339.334.683.663l.14.129c.214.2.429.4.648.6.058.053.117.1.176.157.208.186.416.371.628.552.068.06.139.118.208.176q.3.26.613.513c.078.064.158.127.236.19.2.161.4.322.6.479.085.067.171.132.257.2.2.152.4.3.6.452.092.068.186.135.279.2.2.143.393.285.591.424.1.07.2.139.3.208q.291.2.587.4c.1.07.21.138.315.207q.291.192.585.379l.334.208q.289.18.582.356l.349.206c.192.114.387.226.582.336.12.069.24.135.361.2.194.108.389.215.585.319.123.066.248.131.372.2q.293.153.586.3c.128.065.258.129.387.192.194.1.39.19.585.282.133.063.266.126.4.187.194.089.389.178.585.264.137.061.274.121.412.18.194.084.39.166.586.247.141.059.282.117.424.174.2.077.39.154.586.229.144.056.289.111.434.165.2.073.393.144.59.215l.442.155c.2.068.394.133.593.2.15.049.3.1.451.147.2.062.4.122.594.182l.462.137c.2.057.4.112.6.167.156.042.311.086.468.127l.6.151c.158.039.316.078.474.115q.3.07.6.136c.161.035.321.071.482.1.2.041.405.08.608.12.162.031.324.063.486.092.2.038.41.071.615.105.163.028.326.056.49.081.207.033.415.061.623.09.163.023.326.048.49.069.21.027.423.05.636.074.162.019.323.039.486.056.217.022.436.04.655.06.158.014.315.029.474.042.229.018.459.03.689.045.149.01.3.021.449.028.256.014.513.022.769.031l.376.014q.573.015,1.152.015t1.151-.015C893.281,133.981,893.409,133.975,893.538,133.97Z" fill="#f77d48"/>
    <path id="Path_25" data-name="Path 25" d="M891.476,122.283a17.117,17.117,0,0,0,16.005-11.05l-4.366-1.435a3.3,3.3,0,0,1-2.272-3.11l-.051-5.762a13.147,13.147,0,0,1-17.711.156l.049,5.56a3.307,3.307,0,0,1-2.275,3.17l-5.264,1.726A17.116,17.116,0,0,0,891.476,122.283Z" fill="#ffe4d1"/>
    <path id="Path_26" data-name="Path 26" d="M892,49.438a44,44,0,0,1,43.963,42.281c.022-.571.037-1.143.037-1.719a44,44,0,0,0-88,0c0,.576.015,1.148.037,1.719A44,44,0,0,1,892,49.438Z" fill="#ffb27d"/>
  </g>
</svg>
